<svg width="32" height="32" viewBox="0 0 32 32" fill="none" xmlns="http://www.w3.org/2000/svg">
<path d="M19.9999 18.6666C16.4399 18.6666 9.33325 20.4399 9.33325 23.9999V26.6666H30.6666V23.9999C30.6666 20.4399 23.5599 18.6666 19.9999 18.6666ZM7.99992 13.3333V9.33325H5.33325V13.3333H1.33325V15.9999H5.33325V19.9999H7.99992V15.9999H11.9999V13.3333M19.9999 15.9999C21.4144 15.9999 22.771 15.438 23.7712 14.4378C24.7713 13.4376 25.3333 12.0811 25.3333 10.6666C25.3333 9.2521 24.7713 7.89554 23.7712 6.89535C22.771 5.89515 21.4144 5.33325 19.9999 5.33325C18.5854 5.33325 17.2289 5.89515 16.2287 6.89535C15.2285 7.89554 14.6666 9.2521 14.6666 10.6666C14.6666 12.0811 15.2285 13.4376 16.2287 14.4378C17.2289 15.438 18.5854 15.9999 19.9999 15.9999Z" fill="#292929"/>
</svg>
