<svg width="1439" height="703" viewBox="0 0 1439 703" fill="none" xmlns="http://www.w3.org/2000/svg">
<rect width="1439" height="703" fill="#FFFAF6" fill-opacity="0.95"/>
<path d="M1254.89 93.9236C1244.23 98.1762 1235.52 106.222 1230.43 116.512C1228.85 119.702 1227.67 122.991 1226.87 126.313M1254.89 93.9236C1262.84 90.7457 1271.5 89.8139 1279.94 91.2301C1288.38 92.6464 1296.27 96.3563 1302.74 101.954C1309.22 107.552 1314.03 114.821 1316.65 122.969C1319.27 131.116 1319.59 139.826 1317.6 148.147M1254.89 93.9236L1286.04 109.366M1226.87 126.313L1272.27 148.821M1226.87 126.313C1225.02 134.001 1225.16 142.033 1227.27 149.653M1317.6 148.147C1315.18 158.205 1309.49 167.174 1301.42 173.645C1293.35 180.116 1283.36 183.721 1273.01 183.893C1262.67 184.065 1252.56 180.795 1244.28 174.597C1236 168.399 1230.02 159.624 1227.27 149.653M1317.6 148.147L1290.77 134.848M1227.27 149.653L1253.77 162.793M1276.83 127.942L1267.55 123.338" stroke="#FF9638" stroke-width="2" stroke-linecap="round" stroke-linejoin="round"/>
</svg>
