<svg width="18" height="18" viewBox="0 0 18 18" fill="none" xmlns="http://www.w3.org/2000/svg">
<path d="M10.7084 0.666585C12.407 0.845559 13.9936 1.59892 15.2058 2.80207C16.4181 4.00522 17.1834 5.58609 17.3751 7.28325M10.7084 3.99992C11.528 4.16153 12.2801 4.56577 12.8671 5.16018C13.4541 5.75458 13.8488 6.51169 14.0001 7.33325M17.3334 13.0999V15.5999C17.3344 15.832 17.2868 16.0617 17.1939 16.2744C17.1009 16.487 16.9645 16.6779 16.7935 16.8348C16.6225 16.9917 16.4206 17.1112 16.2007 17.1855C15.9809 17.2599 15.7479 17.2875 15.5168 17.2666C12.9525 16.9876 10.4894 16.1114 8.32511 14.7083C6.31163 13.4288 4.60455 11.7217 3.32511 9.70825C1.91704 7.53412 1.04062 5.05901 0.766774 2.48325C0.745949 2.25281 0.773336 2.02055 0.847191 1.80127C0.921045 1.58199 1.03975 1.38049 1.19575 1.2096C1.35174 1.03871 1.54161 0.902176 1.75327 0.808686C1.96492 0.715197 2.19372 0.666803 2.42511 0.666585H4.92511C5.32953 0.662604 5.7216 0.805817 6.02824 1.06953C6.33488 1.33324 6.53517 1.69946 6.59177 2.09992C6.69701 2.90003 6.89271 3.68561 7.17511 4.44158C7.28723 4.73985 7.31149 5.06401 7.24503 5.37565C7.17857 5.68729 7.02416 5.97334 6.80011 6.19992L5.74177 7.25825C6.92807 9.34454 8.65549 11.072 10.7418 12.2583L11.8001 11.1999C12.0267 10.9759 12.3127 10.8215 12.6244 10.755C12.936 10.6885 13.2602 10.7128 13.5584 10.8249C14.3144 11.1073 15.1 11.303 15.9001 11.4083C16.3049 11.4654 16.6746 11.6693 16.9389 11.9812C17.2032 12.2931 17.3436 12.6912 17.3334 13.0999Z" stroke="white" stroke-linecap="round" stroke-linejoin="round"/>
</svg>
