<svg width="1440" height="544" viewBox="0 0 1440 544" fill="none" xmlns="http://www.w3.org/2000/svg">
<rect width="1440" height="544" fill="#FFFEFE"/>
<g clip-path="url(#clip0_111_6)">
<path d="M452.148 96.8754C443.414 100.359 436.278 106.95 432.112 115.38C430.817 117.994 429.846 120.688 429.189 123.41M452.148 96.8754C458.658 94.2719 465.758 93.5085 472.672 94.6688C479.586 95.829 486.048 98.8683 491.351 103.454C496.654 108.04 500.594 113.996 502.74 120.67C504.886 127.344 505.155 134.48 503.518 141.297M452.148 96.8754L477.669 109.526M429.189 123.41L466.386 141.849M429.189 123.41C427.676 129.708 427.789 136.288 429.517 142.53M503.518 141.297C501.539 149.537 496.877 156.885 490.265 162.186C483.654 167.487 475.468 170.44 466.995 170.581C458.522 170.722 450.243 168.043 443.459 162.966C436.674 157.888 431.77 150.699 429.517 142.53M503.518 141.297L481.539 130.402M429.517 142.53L451.234 153.295M470.125 124.744L462.516 120.973" stroke="#FF9638" stroke-width="2" stroke-linecap="round" stroke-linejoin="round"/>
</g>
<g clip-path="url(#clip1_111_6)">
<path d="M1001.45 400.208C997.244 401.885 993.809 405.058 991.803 409.115C991.18 410.374 990.713 411.671 990.396 412.981M1001.45 400.208C1004.58 398.954 1008 398.587 1011.33 399.145C1014.66 399.704 1017.77 401.167 1020.32 403.374C1022.87 405.582 1024.77 408.449 1025.8 411.662C1026.83 414.875 1026.96 418.31 1026.18 421.591M1001.45 400.208L1013.73 406.297M990.396 412.981L1008.3 421.857M990.396 412.981C989.668 416.013 989.722 419.18 990.554 422.185M1026.18 421.591C1025.22 425.557 1022.98 429.095 1019.8 431.646C1016.61 434.198 1012.67 435.62 1008.6 435.688C1004.52 435.756 1000.53 434.466 997.265 432.022C993.999 429.577 991.639 426.117 990.554 422.185M1026.18 421.591L1015.6 416.347M990.554 422.185L1001.01 427.367M1010.1 413.623L1006.44 411.807" stroke="#FF9638" stroke-width="2" stroke-linecap="round" stroke-linejoin="round"/>
</g>
<defs>
<clipPath id="clip0_111_6">
<rect width="101.913" height="101.913" fill="white" transform="translate(443.33 64.0674) rotate(26.3676)"/>
</clipPath>
<clipPath id="clip1_111_6">
<rect width="49.058" height="49.058" fill="white" transform="translate(997.203 384.415) rotate(26.3676)"/>
</clipPath>
</defs>
</svg>
