<svg width="76" height="76" viewBox="0 0 76 76" fill="none" xmlns="http://www.w3.org/2000/svg">
<circle cx="38" cy="38" r="38" fill="#921C8E" fill-opacity="0.13"/>
<path d="M48.5612 43.4182C47.4401 44.3075 46.1612 44.9772 44.7917 45.3922C44.9294 46.2614 44.9988 47.1504 45 48.0592C48.0229 47.2773 50.6978 45.5076 52.5997 43.0313C54.5016 40.5551 55.5216 37.5143 55.4974 34.392C55.4733 31.2697 54.4065 28.2451 52.4665 25.7985C50.5265 23.352 47.8246 21.6238 44.79 20.8887C41.2165 20.0254 37.4468 20.6019 34.2946 22.4936C31.1423 24.3854 28.8603 27.4407 27.941 31.0002C28.8487 31.0002 29.7371 31.0696 30.6062 31.2085C31.0213 29.839 31.691 28.5601 32.5802 27.439L48.5612 43.4182ZM50.4162 41.5632L43.3585 34.5002L44.6902 33.1685C45.9365 34.0373 47.42 34.5017 48.9392 34.4985C50.3104 34.5013 51.6554 34.1232 52.8242 33.4065C52.8592 33.7658 52.8767 34.1304 52.8767 34.5002C52.8809 37.0643 52.0147 39.5538 50.4197 41.5615M45.3937 23.8077C46.5487 24.2277 47.6162 24.8315 48.563 25.5822L44.7357 29.4095C44.3345 28.6925 44.1242 27.8844 44.125 27.0627C44.125 25.808 44.6062 24.6652 45.3937 23.8077ZM42.83 31.3117L41.5 32.6435L34.4387 25.5822C36.7415 23.7518 39.6663 22.8894 42.5937 23.1777C41.8764 24.3464 41.4977 25.6914 41.5 27.0627C41.5 28.643 41.99 30.1077 42.83 31.3117ZM52.1925 30.6082C51.3054 31.4248 50.1432 31.8771 48.9375 31.8752C48.0852 31.8752 47.2855 31.653 46.5925 31.2645L50.418 27.439C51.1753 28.393 51.7744 29.4642 52.1925 30.6082ZM24.4375 35.3752C24.0894 35.3752 23.7556 35.5135 23.5094 35.7596C23.2633 36.0058 23.125 36.3396 23.125 36.6877V40.1877C23.125 43.5526 24.4617 46.7798 26.8411 49.1591C29.2205 51.5385 32.4476 52.8752 35.8125 52.8752H39.3125C39.6606 52.8752 39.9944 52.7369 40.2406 52.4908C40.4867 52.2446 40.625 51.9108 40.625 51.5627V48.0627C40.625 44.6978 39.2883 41.4707 36.9089 39.0913C34.5295 36.7119 31.3024 35.3752 27.9375 35.3752H24.4375ZM20.5 36.6877C20.5 35.6434 20.9148 34.6419 21.6533 33.9035C22.3917 33.1651 23.3932 32.7502 24.4375 32.7502H27.9375C31.9986 32.7502 35.8934 34.3635 38.7651 37.2351C41.6367 40.1068 43.25 44.0016 43.25 48.0627V51.5627C43.25 52.607 42.8352 53.6085 42.0967 54.3469C41.3583 55.0854 40.3568 55.5002 39.3125 55.5002H35.8125C31.7514 55.5002 27.8566 53.8869 24.9849 51.0153C22.1133 48.1436 20.5 44.2488 20.5 40.1877V36.6877ZM30.615 41.0102C30.3662 40.7784 30.0371 40.6522 29.6971 40.6582C29.3571 40.6642 29.0326 40.8019 28.7922 41.0424C28.5517 41.2828 28.4139 41.6073 28.4079 41.9473C28.4019 42.2873 28.5282 42.6164 28.76 42.8652L33.135 47.2402C33.2552 47.3692 33.4001 47.4726 33.5611 47.5443C33.7221 47.6161 33.8959 47.6546 34.0721 47.6577C34.2483 47.6609 34.4234 47.6284 34.5868 47.5624C34.7502 47.4964 34.8987 47.3982 35.0233 47.2735C35.1479 47.1489 35.2462 47.0004 35.3122 46.837C35.3782 46.6736 35.4106 46.4985 35.4075 46.3223C35.4044 46.1461 35.3659 45.9723 35.2941 45.8113C35.2224 45.6503 35.119 45.5054 34.99 45.3852L30.615 41.0102Z" fill="#921C8E"/>
</svg>
