<svg width="19" height="19" viewBox="0 0 19 19" fill="none" xmlns="http://www.w3.org/2000/svg">
<path d="M6.17492 1.58325H12.8249C15.3583 1.58325 17.4166 3.64159 17.4166 6.17492V12.8249C17.4166 14.0427 16.9328 15.2106 16.0717 16.0717C15.2106 16.9328 14.0427 17.4166 12.8249 17.4166H6.17492C3.64159 17.4166 1.58325 15.3583 1.58325 12.8249V6.17492C1.58325 4.95713 2.06702 3.78922 2.92812 2.92812C3.78922 2.06702 4.95713 1.58325 6.17492 1.58325ZM6.01658 3.16659C5.26072 3.16659 4.53581 3.46685 4.00133 4.00133C3.46685 4.53581 3.16659 5.26072 3.16659 6.01658V12.9833C3.16659 14.5587 4.44117 15.8333 6.01658 15.8333H12.9833C13.7391 15.8333 14.464 15.533 14.9985 14.9985C15.533 14.464 15.8333 13.7391 15.8333 12.9833V6.01658C15.8333 4.44117 14.5587 3.16659 12.9833 3.16659H6.01658ZM13.6562 4.35409C13.9186 4.35409 14.1703 4.45834 14.3559 4.64393C14.5415 4.82951 14.6458 5.08121 14.6458 5.34367C14.6458 5.60612 14.5415 5.85783 14.3559 6.04341C14.1703 6.22899 13.9186 6.33325 13.6562 6.33325C13.3937 6.33325 13.142 6.22899 12.9564 6.04341C12.7708 5.85783 12.6666 5.60612 12.6666 5.34367C12.6666 5.08121 12.7708 4.82951 12.9564 4.64393C13.142 4.45834 13.3937 4.35409 13.6562 4.35409ZM9.49992 5.54159C10.5497 5.54159 11.5566 5.95862 12.2989 6.70095C13.0412 7.44329 13.4583 8.4501 13.4583 9.49992C13.4583 10.5497 13.0412 11.5566 12.2989 12.2989C11.5566 13.0412 10.5497 13.4583 9.49992 13.4583C8.4501 13.4583 7.44329 13.0412 6.70095 12.2989C5.95862 11.5566 5.54159 10.5497 5.54159 9.49992C5.54159 8.4501 5.95862 7.44329 6.70095 6.70095C7.44329 5.95862 8.4501 5.54159 9.49992 5.54159ZM9.49992 7.12492C8.87003 7.12492 8.26594 7.37514 7.82054 7.82054C7.37514 8.26594 7.12492 8.87003 7.12492 9.49992C7.12492 10.1298 7.37514 10.7339 7.82054 11.1793C8.26594 11.6247 8.87003 11.8749 9.49992 11.8749C10.1298 11.8749 10.7339 11.6247 11.1793 11.1793C11.6247 10.7339 11.8749 10.1298 11.8749 9.49992C11.8749 8.87003 11.6247 8.26594 11.1793 7.82054C10.7339 7.37514 10.1298 7.12492 9.49992 7.12492Z" fill="white"/>
</svg>
