<svg width="290" height="121" viewBox="0 0 290 121" fill="none" xmlns="http://www.w3.org/2000/svg">
<g clip-path="url(#clip0_1_306)">
<path fill-rule="evenodd" clip-rule="evenodd" d="M40.5124 15.9943C43.6079 16.9715 46.9087 15.2546 47.8885 12.1596C48.8659 9.06471 47.1487 5.76445 44.0533 4.78476C40.9578 3.80755 37.6545 5.52448 36.6771 8.6194C35.6998 11.7143 37.417 15.0146 40.5124 15.9943Z" fill="url(#paint0_linear_1_306)"/>
<path fill-rule="evenodd" clip-rule="evenodd" d="M41.5615 12.6718C42.821 13.0677 44.1646 12.37 44.5654 11.1108C44.9638 9.85152 44.2635 8.50816 43.0041 8.10738C41.7446 7.70907 40.401 8.4092 40.0027 9.66845C39.6043 10.9302 40.302 12.271 41.5615 12.6718Z" fill="white"/>
<path fill-rule="evenodd" clip-rule="evenodd" d="M45.9114 13.8691C45.9114 13.8691 71.5212 17.058 83.7347 34.1506C83.7347 34.1506 76.5739 13.4806 46.2058 7.51099L45.9114 13.8691Z" fill="url(#paint1_linear_1_306)"/>
<path fill-rule="evenodd" clip-rule="evenodd" d="M9.25099 40.4246C11.9208 38.4306 12.4702 34.643 10.4733 31.9686C8.47651 29.2992 4.69318 28.75 2.01591 30.7465C-0.656421 32.7405 -1.20326 36.5281 0.793563 39.2C2.79286 41.8744 6.57619 42.4211 9.25099 40.4246Z" fill="url(#paint2_linear_1_306)"/>
<path fill-rule="evenodd" clip-rule="evenodd" d="M7.10572 37.5574C8.19445 36.7459 8.41714 35.2047 7.60307 34.1161C6.79147 33.0301 5.24993 32.8049 4.16121 33.6189C3.07248 34.4303 2.84979 35.9716 3.66386 37.0601C4.47793 38.1462 6.01947 38.3689 7.10572 37.5574Z" fill="white"/>
<path fill-rule="evenodd" clip-rule="evenodd" d="M10.7158 34.6479C10.7158 34.6479 26.6261 17.8522 49.9545 19.3588C49.9545 19.3588 27.7692 11.7885 5.58643 30.5881L10.7158 34.6479Z" fill="url(#paint3_linear_1_306)"/>
<path fill-rule="evenodd" clip-rule="evenodd" d="M88.1591 13.1605C84.8879 11.7801 81.117 13.3164 79.7387 16.5845C78.3605 19.8551 79.8922 23.6254 83.1658 25.0059C86.4369 26.3838 90.2078 24.85 91.5885 21.5769C92.9668 18.3088 91.4327 14.5385 88.1591 13.1605Z" fill="url(#paint4_linear_1_306)"/>
<path fill-rule="evenodd" clip-rule="evenodd" d="M86.6793 16.6711C85.348 16.1095 83.8139 16.7329 83.2523 18.0639C82.6906 19.3974 83.3166 20.9312 84.6478 21.4953C85.979 22.0544 87.5131 21.4334 88.0748 20.1C88.634 18.7665 88.0105 17.2351 86.6793 16.6711Z" fill="white"/>
<path d="M59.1841 59.522C59.1841 59.522 83.7349 60.2889 94.684 46.9172C104.557 34.864 85.8529 22.6204 85.8529 22.6204L91.3634 18.8501C91.3634 18.8501 106.143 29.6242 104.74 41.7169C103.372 53.5177 87.4662 63.1166 59.1841 59.522Z" fill="url(#paint5_linear_1_306)"/>
<g filter="url(#filter0_d_1_306)">
<path d="M34.5442 62.6422C38.5106 61.9767 36.7637 58.2856 31.2582 51.6999C26.2426 45.6956 22.4618 35.1219 26.0942 32.1729C28.6873 30.0676 34.2918 26.7846 38.6096 27.4996C40.7351 27.8534 42.232 29.0458 42.8308 30.8593L42.9274 31.1561C46.2306 41.1534 50.8008 47.6599 55.2869 48.1225C58.8228 48.4862 62.1805 45.7723 65.0508 41.1113C68.3961 35.6835 69.8164 30.7504 74.3025 30.9928C79.1943 31.2551 84.8359 36.7324 84.8359 39.8323C84.8359 41.569 83.7472 44.0776 81.3173 47.7811C78.551 51.9943 72.756 57.2094 71.3802 57.7289C76.1607 51.9077 80.7284 43.5803 80.5379 40.2207C80.4315 38.3356 76.8758 35.2456 74.013 35.8616C72.412 36.2055 70.1975 41.2721 68.4877 43.2958C65.9688 46.2794 62.6778 51.4822 54.8662 50.9305C46.9977 50.3763 41.0147 39.7061 38.7852 34.2708C38.5477 33.6944 38.1196 32.0319 36.541 32.2595C33.8538 32.643 31.0776 33.7785 29.9567 35.1466C28.7764 36.6656 28.8853 42.6477 34.46 50.1561C39.6463 57.1376 42.2568 64.2874 35.0341 65.5169C27.8633 66.7366 20.9722 65.6109 18.5844 67.0285C16.2115 68.4387 16.214 74.772 17.3472 75.8878C19.9503 78.4458 31.8966 78.2677 37.4738 77.3622C40.6237 76.8526 44.5184 75.5513 49.336 73.869C51.5555 73.0947 53.7627 72.924 54.9033 73.2802C59.1667 74.6162 62.0271 84.7099 63.8457 91.6048C64.1501 92.7602 64.4198 93.7844 64.6672 94.5538C65.0136 95.6201 65.4961 95.9466 65.8327 96.1C66.6096 96.4563 70.8161 96.0134 73.1568 94.6651C75.9677 93.0471 70.9868 81.6843 70.1307 76.6399C69.8362 74.8982 68.8861 70.0913 69.6581 64.1761C69.6581 64.1761 71.5064 72.9017 77.2049 88.5272C78.6079 92.3718 78.3926 95.2341 77.1703 97.2974C75.1165 100.763 66.184 101.622 63.6577 100.481C61.8613 99.6675 60.3297 98.2474 59.9313 96.0753C58.5951 88.7845 56.7863 77.1149 53.7528 76.249C51.0681 75.4796 44.892 78.6858 40.2773 80.3409C33.7722 82.6714 16.501 83.0623 12.542 78.238C11.1613 76.5557 11.2034 68.2927 14.7219 64.4581C17.9955 60.8857 30.4788 63.325 34.5442 62.6422Z" fill="white"/>
</g>
<g filter="url(#filter1_d_1_306)">
<path d="M59.3919 41.0204C64.264 39.6226 67.0106 34.2591 65.5185 29.0662C64.2714 24.7195 61.2057 22.5894 56.5068 22.2406C54.3516 22.0798 50.3036 22.8244 48.5369 21.3054C48.5369 21.3054 49.5984 26.3968 55.2078 26.4661C58.2587 26.5057 60.253 27.3592 61.4754 30.041C63.3881 34.2492 61.2923 37.2847 58.8723 38.2026C55.4998 39.4791 52.5973 37.1115 51.4418 34.17C50.8776 32.7326 50.8776 30.7733 51.7956 29.4819C52.1767 28.945 52.1742 28.2375 51.7436 27.7451L50.6129 26.4488C50.0512 25.808 49.0416 25.813 48.4799 26.4611C46.4213 28.851 46.3124 31.6045 47.2527 34.8108C48.7472 39.8898 53.6167 42.6804 59.3919 41.0204Z" fill="white"/>
</g>
<path fill-rule="evenodd" clip-rule="evenodd" d="M52.6838 67.5589C55.8387 66.6906 57.692 63.425 56.821 60.2707C55.9525 57.1164 52.6888 55.2634 49.5315 56.1342C46.3791 57.005 44.5233 60.2682 45.3943 63.425C46.2628 66.5768 49.529 68.4273 52.6838 67.5589Z" fill="url(#paint6_linear_1_306)"/>
<path fill-rule="evenodd" clip-rule="evenodd" d="M51.751 64.1721C53.0352 63.8183 53.7899 62.4898 53.4336 61.2058C53.0798 59.9218 51.751 59.1673 50.4643 59.521C49.1777 59.8748 48.4255 61.2033 48.7793 62.4873C49.1356 63.7713 50.4643 64.5234 51.751 64.1721Z" fill="white"/>
<path d="M22.2736 29.4155C22.2736 29.4155 15.4072 35.6227 16.5133 44.1628C18.3567 58.4103 48.3758 58.6701 48.3758 58.6701L46.5423 64.5457C46.5423 64.5457 19.5592 63.8951 13.2496 52.6287C8.62743 44.378 14.2171 34.1952 22.2736 29.4155Z" fill="url(#paint7_linear_1_306)"/>
<path d="M109.288 74.8776C110.097 75.6866 110.678 76.5575 111.037 77.4901C111.393 78.4228 111.574 79.3877 111.574 80.3822C111.574 81.347 111.388 82.3193 111.015 83.299C110.641 84.2787 110.05 85.1718 109.241 85.9808C108.526 86.6636 107.684 87.2103 106.722 87.6136C105.757 88.0168 104.762 88.2197 103.735 88.2197C102.738 88.2197 101.768 88.0242 100.818 87.6358C99.8677 87.2474 99.0215 86.6784 98.2742 85.9337L97.4354 85.0951C96.7203 85.9956 95.832 86.7353 94.7754 87.3117C93.7164 87.8857 92.598 88.1752 91.4152 88.1752C90.4181 88.1752 89.4555 87.9723 88.5227 87.569C87.5899 87.1633 86.7585 86.6042 86.026 85.8892C85.2961 85.1742 84.7047 84.3504 84.2519 83.4177C83.8016 82.4851 83.5764 81.4732 83.5764 80.3847V56.8252C83.5764 55.8306 83.7867 54.8658 84.2074 53.9331C84.628 53.0004 85.1947 52.1692 85.9098 51.4369C86.6248 50.7071 87.4562 50.1232 88.4064 49.6878C89.3541 49.2524 90.3587 49.0347 91.4152 49.0347C92.4718 49.0347 93.4764 49.2375 94.4241 49.6408C95.3718 50.0465 96.2056 50.6056 96.9207 51.3206C97.6358 52.0356 98.195 52.8693 98.6008 53.8168C99.0042 54.7668 99.2071 55.7688 99.2071 56.8252V57.3843C100.543 56.4194 102.053 55.937 103.733 55.937C104.633 55.937 105.576 56.1077 106.556 56.4491C107.536 56.7905 108.429 57.3521 109.238 58.1289C110.047 58.9379 110.639 59.831 111.012 60.8107C111.386 61.7904 111.572 62.7627 111.572 63.7275C111.572 64.7245 111.393 65.6943 111.035 66.6443C110.676 67.5943 110.109 68.4577 109.332 69.2345L106.487 72.0796L109.288 74.8776Z" fill="url(#paint8_linear_1_306)"/>
<path d="M112.133 49.2649C113.19 49.2649 114.187 49.4752 115.12 49.8957C116.053 50.3163 116.862 50.8754 117.547 51.5756C118.23 52.2757 118.767 53.0921 119.158 54.0248C119.546 54.9575 119.742 55.9372 119.742 56.9638C119.742 58.2404 119.445 59.4353 118.856 60.556C119.353 61.553 119.65 62.6094 119.742 63.7276V80.6149C119.742 82.7598 119.081 84.5411 117.76 85.9562C116.439 87.3713 114.625 88.1555 112.324 88.3114C110.178 88.3114 108.397 87.6805 106.982 86.4213C105.566 85.162 104.703 83.3659 104.391 81.033V63.4926C104.485 62.4981 104.75 61.5654 105.185 60.6921C104.656 59.5417 104.391 58.2355 104.391 56.7734C104.423 55.717 104.656 54.7299 105.091 53.812C105.527 52.8942 106.093 52.1025 106.793 51.4321C107.494 50.7641 108.303 50.2347 109.221 49.8463C110.134 49.4603 111.106 49.2649 112.133 49.2649Z" fill="url(#paint9_linear_1_306)"/>
<path d="M136.535 49.1262C137.562 49.1262 138.542 49.3118 139.475 49.6853C140.408 50.0589 141.224 50.5883 141.925 51.2711C142.625 51.9564 143.184 52.7728 143.605 53.7204C144.025 54.6704 144.236 55.7193 144.236 56.8697V72.2181C144.236 74.3631 143.8 76.409 142.929 78.3536C142.058 80.2981 140.89 81.9928 139.43 83.4375C137.968 84.8848 136.273 86.0352 134.346 86.8887C132.416 87.7447 130.394 88.1727 128.281 88.1727C126.165 88.1727 124.144 87.7521 122.214 86.9135C120.284 86.0748 118.581 84.9318 117.104 83.4846C115.627 82.0373 114.452 80.3525 113.581 78.4228C112.71 76.4956 112.274 74.4274 112.274 72.2181C112.274 70.0732 112.702 68.0273 113.558 66.0827C114.415 64.1382 115.573 62.4435 117.035 60.9987C118.497 59.5515 120.2 58.4011 122.144 57.5451C124.089 56.6891 126.133 56.2611 128.281 56.2611H128.793C128.887 55.2666 129.159 54.3339 129.61 53.4606C130.06 52.5898 130.637 51.8352 131.337 51.1969C132.037 50.5611 132.829 50.054 133.717 49.6804C134.598 49.3118 135.538 49.1262 136.535 49.1262Z" fill="url(#paint10_linear_1_306)"/>
<path d="M161.918 56.2637C164.001 56.2637 165.822 57.0405 167.376 58.5966C168.153 59.4056 168.712 60.2616 169.056 61.1621C169.398 62.0651 169.568 62.9805 169.568 63.9156C169.568 66.0606 168.821 67.8814 167.329 69.3732L166.396 70.3059L163.689 73.0124C164.343 73.1682 164.981 73.4156 165.602 73.7595C166.223 74.1009 166.814 74.5536 167.376 75.1128C168.153 75.9217 168.712 76.7852 169.056 77.703C169.398 78.6208 169.568 79.5609 169.568 80.5258C169.568 81.4585 169.388 82.3763 169.031 83.2793C168.673 84.1798 168.091 85.068 167.282 85.9388C165.664 87.4306 163.83 88.1777 161.777 88.1777H145.26C143.145 88.1777 141.341 87.4306 139.846 85.9388C139.099 85.162 138.532 84.3357 138.144 83.4673C137.755 82.5965 137.577 81.6168 137.607 80.5283C137.513 78.413 138.245 76.6095 139.799 75.1152L143.486 71.429C142.739 71.2732 142.071 71.0159 141.479 70.6596C140.888 70.3034 140.344 69.8754 139.846 69.3757L139.987 69.4697C138.307 67.9457 137.515 66.0952 137.607 63.9181C137.577 62.8914 137.77 61.9191 138.191 61.0013C138.611 60.0835 139.163 59.2522 139.849 58.5051C140.564 57.8223 141.395 57.278 142.345 56.8723C143.293 56.469 144.265 56.2661 145.263 56.2661H161.918V56.2637Z" fill="url(#paint11_linear_1_306)"/>
<path d="M182.636 56.1697C183.724 56.1697 184.736 56.3948 185.669 56.8451C186.602 57.2954 187.404 57.8866 188.072 58.6189C188.74 59.3487 189.269 60.1652 189.658 61.0681C190.046 61.9711 190.242 62.8865 190.242 63.8217C190.242 64.6925 190.079 65.5336 189.752 66.3402C189.425 67.1491 188.997 67.879 188.468 68.5321C189.368 69.6206 190.069 70.8254 190.568 72.149C191.066 73.4701 191.316 74.8481 191.316 76.278C191.316 78.0197 191.019 79.6129 190.43 81.0602C189.839 82.5075 189.007 83.7593 187.933 84.8157C186.859 85.8721 185.585 86.6959 184.108 87.2872C182.631 87.8784 181.005 88.1728 179.231 88.1728H171.345C170.286 88.1728 169.299 87.9774 168.383 87.589C167.465 87.2006 166.664 86.6711 165.981 86.0032C165.298 85.3352 164.761 84.5336 164.37 83.601C163.981 82.6683 163.786 81.6416 163.786 80.5209C163.786 79.6822 163.942 78.8584 164.251 78.0494C164.563 77.2404 164.983 76.4784 165.51 75.7635C164.639 74.7071 163.957 73.5171 163.457 72.1935C162.959 70.8724 162.709 69.4648 162.709 67.9705C162.709 66.4168 163.006 64.9374 163.595 63.5396C164.187 62.1394 165.003 60.9049 166.045 59.8312C167.087 58.7575 168.309 57.8941 169.707 57.2409C171.108 56.5878 172.614 56.2316 174.233 56.1672H182.636V56.1697Z" fill="url(#paint12_linear_1_306)"/>
<path d="M200.367 56.3105C202.512 56.3105 204.559 56.7311 206.504 57.5698C208.448 58.4085 210.143 59.5539 211.588 60.9987C213.036 62.4435 214.186 64.1406 215.04 66.0827C215.896 68.0272 216.324 70.088 216.324 72.2651C216.324 74.4744 215.921 76.5426 215.112 78.4698C214.303 80.3995 213.182 82.0843 211.752 83.5315C210.322 84.9788 208.634 86.1217 206.689 86.9604C204.744 87.7991 202.636 88.2197 200.367 88.2197H199.808C199.746 89.2142 199.504 90.1469 199.085 91.0177C198.665 91.8886 198.106 92.6505 197.405 93.3037C196.705 93.9568 195.896 94.4714 194.978 94.8424C194.06 95.216 193.087 95.4016 192.061 95.4016C191.066 95.4016 190.116 95.216 189.215 94.8424C188.312 94.4689 187.505 93.9469 186.788 93.2789C186.073 92.6109 185.496 91.8242 185.061 90.9237C184.625 90.0207 184.393 89.041 184.36 87.9846V72.2626C184.36 70.1177 184.788 68.0718 185.645 66.1272C186.501 64.1827 187.659 62.488 189.121 61.0432C190.583 59.596 192.278 58.4456 194.206 57.5896C196.136 56.7385 198.19 56.3105 200.367 56.3105Z" fill="url(#paint13_linear_1_306)"/>
<path d="M224.396 56.6841C226.541 56.6841 228.587 57.0973 230.532 57.9211C232.477 58.7449 234.172 59.8805 235.62 61.3277C237.065 62.775 238.215 64.4697 239.071 66.4117C239.927 68.3563 240.355 70.4467 240.355 72.6857C240.355 74.8628 239.942 76.9162 239.118 78.8434C238.294 80.7731 237.159 82.4603 235.711 83.9051C234.264 85.3524 232.576 86.4953 230.648 87.334C228.718 88.1727 226.635 88.5932 224.396 88.5932C222.186 88.5932 220.118 88.1974 218.19 87.4033C216.26 86.6091 214.572 85.5057 213.127 84.0906C211.68 82.6755 210.537 80.9957 209.698 79.0512C208.859 77.1066 208.438 74.9865 208.438 72.6832C208.438 70.5061 208.844 68.4602 209.651 66.5478C210.46 64.6354 211.571 62.963 212.986 61.5331C214.402 60.1031 216.067 58.9602 217.98 58.1042C219.892 57.2482 221.968 56.7757 224.21 56.6816H224.396V56.6841Z" fill="url(#paint14_linear_1_306)"/>
<path d="M240.774 88.2221C239.685 88.2221 238.69 88.0415 237.787 87.6853C236.884 87.3266 236.099 86.8219 235.431 86.1688C234.763 85.5156 234.226 84.7289 233.821 83.8135C233.417 82.8957 233.167 81.8764 233.073 80.7582V71.894C233.105 69.7491 233.548 67.7427 234.402 65.8749C235.258 64.0095 236.401 62.3841 237.831 60.9987C239.262 59.6158 240.927 58.5099 242.825 57.6861C244.723 56.8622 246.744 56.4021 248.889 56.3105C249.978 56.3105 250.98 56.506 251.898 56.8944C252.816 57.2828 253.625 57.8048 254.326 58.4579C255.026 59.1111 255.585 59.8805 256.006 60.7661C256.426 61.6518 256.681 62.6092 256.775 63.6359C256.775 64.7566 256.572 65.8056 256.169 66.7853C255.763 67.765 255.219 68.6135 254.536 69.3285C253.851 70.0435 253.034 70.6125 252.086 71.0306C251.136 71.4512 250.134 71.6763 249.078 71.706C248.922 71.706 248.791 71.7604 248.682 71.8693C248.573 71.9781 248.518 72.1117 248.518 72.2651V81.1763C248.333 83.2297 247.568 84.9169 246.232 86.238C244.896 87.5591 243.075 88.2221 240.774 88.2221Z" fill="url(#paint15_linear_1_306)"/>
<path d="M256.825 49.0322C257.787 49.0322 258.705 49.2029 259.579 49.5443C260.45 49.8857 261.219 50.3607 261.887 50.9669C262.556 51.573 263.125 52.2805 263.59 53.0895C264.057 53.8985 264.367 54.7842 264.523 55.749H268.957C270.078 55.749 271.109 55.9593 272.06 56.3799C273.007 56.8005 273.816 57.367 274.487 58.082C275.155 58.7969 275.685 59.6208 276.073 60.5535C276.462 61.4861 276.657 62.4831 276.657 63.5395C276.657 64.2545 276.533 64.962 276.283 65.6622C276.033 66.3623 275.699 67.0228 275.281 67.6438C274.861 68.2672 274.371 68.8338 273.811 69.3459C273.252 69.858 272.646 70.2712 271.993 70.5829C272.74 70.7066 273.477 70.9317 274.21 71.2583C274.94 71.5848 275.618 71.998 276.239 72.4952C277.11 73.2721 277.756 74.1751 278.176 75.2018C278.597 76.2284 278.807 77.2403 278.807 78.2348C278.807 79.1675 278.644 80.0853 278.317 80.9883C277.991 81.8913 277.469 82.73 276.754 83.5068C275.229 84.9986 273.527 86.149 271.644 86.958C269.761 87.767 267.747 88.1702 265.601 88.1702C263.362 88.1702 261.239 87.7893 259.232 87.0273C257.226 86.2653 255.476 85.1768 253.982 83.7617C252.49 82.3465 251.292 80.6445 250.389 78.6529C249.488 76.6639 249.021 74.4546 248.989 72.0277V56.6322C248.989 55.5437 249.199 54.5318 249.62 53.5992C250.04 52.6665 250.614 51.8649 251.347 51.1969C252.077 50.529 252.918 49.9995 253.866 49.6111C254.811 49.2277 255.798 49.0322 256.825 49.0322Z" fill="url(#paint16_linear_1_306)"/>
<path d="M104.203 78.064C104.824 78.6874 105.136 79.4247 105.136 80.2807C105.136 81.1367 104.824 81.8739 104.203 82.4973C103.579 83.0564 102.849 83.3607 102.01 83.4078C101.172 83.4548 100.424 83.1505 99.7711 82.4973L92.7241 75.4985V80.2559C92.7241 81.0649 92.4123 81.7873 91.7912 82.4256C91.1677 83.0639 90.4377 83.383 89.5989 83.383C88.7898 83.383 88.0598 83.0787 87.4066 82.4726C86.7534 81.8665 86.4268 81.1268 86.4268 80.2559V56.6964C86.4268 55.8874 86.7361 55.165 87.3596 54.5268C87.9807 53.8885 88.7279 53.5693 89.5989 53.5693C90.4699 53.5693 91.2097 53.8736 91.816 54.4798C92.4222 55.0859 92.7265 55.8256 92.7265 56.6964V68.4057L99.7735 61.3598C100.395 60.7389 101.127 60.4346 101.966 60.4494C102.805 60.4667 103.552 60.7686 104.205 61.3598C104.826 61.9833 105.138 62.7205 105.138 63.5765C105.138 64.4325 104.826 65.1697 104.205 65.7932L98.0464 71.9508L104.203 78.064Z" fill="white"/>
<path d="M110.314 53.8044C111.124 53.8044 111.814 54.1087 112.39 54.7149C112.965 55.321 113.254 56.0285 113.254 56.8375C113.254 57.6465 112.967 58.3541 112.39 58.9602C111.814 59.5663 111.124 59.8706 110.314 59.8706C109.411 59.8409 108.674 59.5514 108.097 59.0072C107.521 58.4629 107.234 57.6935 107.234 56.699C107.264 55.89 107.583 55.2072 108.191 54.6456C108.798 54.0865 109.505 53.8044 110.314 53.8044ZM110.314 60.9443C111.124 60.9443 111.799 61.2412 112.343 61.83C112.888 62.4212 113.19 63.1362 113.254 63.9749V80.491C113.254 81.3297 112.989 82.0298 112.46 82.5914C111.93 83.1505 111.215 83.4622 110.314 83.5241C109.505 83.5241 108.822 83.2767 108.261 82.777C107.702 82.2797 107.358 81.5796 107.234 80.6766V63.7869C107.296 62.9779 107.622 62.3099 108.214 61.7805C108.805 61.256 109.505 60.974 110.314 60.9443Z" fill="white"/>
<path d="M134.717 53.6658C135.526 53.6658 136.233 53.9528 136.84 54.5292C137.446 55.1056 137.75 55.8429 137.75 56.7459V72.0943C137.75 73.6182 137.446 75.0655 136.84 76.4336C136.233 77.8017 135.41 78.9991 134.368 80.0258C133.326 81.0525 132.121 81.8689 130.753 82.475C129.384 83.0811 127.952 83.3854 126.46 83.3854C124.968 83.3854 123.535 83.091 122.167 82.4998C120.798 81.9085 119.593 81.0995 118.552 80.0728C117.51 79.0461 116.676 77.8487 116.055 76.4806C115.431 75.1125 115.122 73.6504 115.122 72.0943C115.122 70.5703 115.426 69.1255 116.033 67.755C116.639 66.3869 117.463 65.1895 118.507 64.1628C119.549 63.1361 120.754 62.3197 122.122 61.7136C123.49 61.1074 124.938 60.8031 126.462 60.8031C128.328 60.8031 130.055 61.2237 131.641 62.0624V56.6964C131.641 56.2931 131.725 55.9022 131.898 55.5311C132.069 55.1576 132.294 54.831 132.574 54.5515C132.853 54.2719 133.18 54.0542 133.554 53.8983C133.925 53.7425 134.313 53.6658 134.717 53.6658ZM126.457 66.8693C125.742 66.8693 125.064 67.0103 124.428 67.2899C123.79 67.5694 123.231 67.9504 122.748 68.4328C122.266 68.9153 121.885 69.4744 121.605 70.1126C121.325 70.7509 121.184 71.4115 121.184 72.0968C121.184 72.8117 121.325 73.4896 121.605 74.1254C121.885 74.7637 122.266 75.3154 122.748 75.7805C123.231 76.2481 123.79 76.6192 124.428 76.9012C125.064 77.1807 125.742 77.3218 126.457 77.3218C127.14 77.3218 127.793 77.1807 128.417 76.9012C129.038 76.6216 129.59 76.2406 130.072 75.7582C130.555 75.2758 130.936 74.7241 131.215 74.1031C131.495 73.4822 131.636 72.8117 131.636 72.0968C131.636 71.3496 131.495 70.6594 131.215 70.0211C130.936 69.3853 130.555 68.8311 130.072 68.366C129.59 67.8985 129.038 67.5348 128.417 67.2701C127.796 67.0004 127.143 66.8693 126.457 66.8693Z" fill="white"/>
<path d="M160.101 60.8032C160.911 60.8032 161.611 61.1001 162.202 61.6889C162.794 62.342 163.088 63.0422 163.088 63.7893C163.088 64.628 162.791 65.3454 162.202 65.9342C162.046 66.0901 161.89 66.2459 161.735 66.4018C161.579 66.5577 161.423 66.7135 161.267 66.8669C159.525 68.6086 157.79 70.3428 156.063 72.0696C154.336 73.7965 152.587 75.5307 150.815 77.2724H160.101C160.878 77.3045 161.579 77.6138 162.202 78.205C162.794 78.8582 163.088 79.5905 163.088 80.397C163.088 81.1441 162.791 81.8442 162.202 82.4974C161.549 83.0886 160.849 83.383 160.101 83.383H159.96H144.748H143.583H143.441C142.632 83.383 141.932 83.0886 141.341 82.4974C140.717 81.8764 140.423 81.1763 140.455 80.397C140.393 79.5583 140.673 78.8582 141.294 78.2966L152.678 66.8669H143.58H143.439C142.6 66.805 141.9 66.4933 141.338 65.9342C140.685 65.3429 140.388 64.628 140.452 63.7893C140.42 63.0125 140.717 62.3123 141.338 61.6889C141.897 61.0976 142.598 60.8032 143.439 60.8032H160.101Z" fill="white"/>
<path d="M180.819 60.7093C181.658 60.7093 182.358 61.0284 182.92 61.6667C183.479 62.305 183.759 62.9804 183.759 63.6953C183.759 64.5043 183.454 65.2119 182.848 65.818C182.242 66.4241 181.564 66.7284 180.819 66.7284H172.792C172.419 66.7284 172.132 66.8373 171.929 67.055C171.726 67.2727 171.624 67.5374 171.624 67.8491C171.624 68.1608 171.726 68.433 171.929 68.6655C172.132 68.8981 172.419 69.0168 172.792 69.0168H178.065C179.03 69.0168 179.924 69.2123 180.747 69.6007C181.571 69.9891 182.287 70.5185 182.893 71.1865C183.499 71.8544 183.974 72.6164 184.316 73.4724C184.657 74.3284 184.828 75.2215 184.828 76.1542C184.828 77.213 184.64 78.1828 184.269 79.071C183.895 79.9567 183.383 80.7186 182.729 81.3569C182.076 81.9952 181.299 82.4925 180.396 82.8487C179.493 83.2074 178.498 83.3856 177.41 83.3856H169.524C168.715 83.3856 168.032 83.106 167.47 82.5469C166.908 81.9878 166.631 81.2728 166.631 80.402C166.631 79.6251 166.911 78.9176 167.47 78.2793C168.029 77.641 168.715 77.307 169.524 77.2749H177.41C178.248 77.2749 178.669 76.9013 178.669 76.1542C178.669 75.4392 178.248 75.0805 177.41 75.0805H172.28C171.347 75.0805 170.466 74.8875 169.645 74.4966C168.821 74.1082 168.106 73.5862 167.5 72.9331C166.893 72.28 166.418 71.518 166.077 70.6472C165.735 69.7763 165.565 68.8436 165.565 67.8466C165.565 66.9139 165.743 66.0208 166.102 65.1649C166.458 64.3089 166.948 63.5543 167.571 62.9012C168.192 62.2481 168.925 61.7285 169.764 61.3376C170.603 60.9492 171.521 60.7389 172.518 60.7068H180.819V60.7093Z" fill="white"/>
<path d="M198.548 60.8501C200.072 60.8501 201.518 61.147 202.888 61.7358C204.257 62.3271 205.454 63.136 206.481 64.1627C207.508 65.1894 208.325 66.3868 208.931 67.7549C209.537 69.123 209.841 70.5851 209.841 72.1412C209.841 73.6974 209.554 75.157 208.978 76.5276C208.401 77.8957 207.609 79.0931 206.597 80.1198C205.585 81.1465 204.388 81.9554 203.005 82.5467C201.621 83.138 200.134 83.4324 198.548 83.4324C196.618 83.4324 194.876 83.044 193.322 82.2672V87.6332C193.322 88.4422 193.025 89.1423 192.437 89.7336C191.845 90.3248 191.115 90.6192 190.244 90.6192C189.467 90.6192 188.774 90.3471 188.168 89.8028C187.562 89.2586 187.243 88.5807 187.211 87.7742V72.1462C187.211 70.6222 187.515 69.1774 188.121 67.8069C188.727 66.4388 189.544 65.2414 190.571 64.2147C191.598 63.188 192.795 62.3716 194.164 61.7655C195.532 61.1544 196.994 60.8501 198.548 60.8501ZM193.322 72.1412C193.322 72.9181 193.463 73.6256 193.743 74.2639C194.023 74.9022 194.404 75.4539 194.886 75.919C195.369 76.3866 195.928 76.7502 196.566 77.0149C197.205 77.2797 197.865 77.4108 198.551 77.4108C199.298 77.4108 199.981 77.2698 200.604 76.9902C201.226 76.7107 201.772 76.3297 202.238 75.8472C202.705 75.3648 203.069 74.8057 203.334 74.1674C203.598 73.5316 203.73 72.8537 203.73 72.1388C203.73 71.4238 203.589 70.7484 203.309 70.1101C203.029 69.4743 202.656 68.9202 202.188 68.4551C201.72 67.9899 201.176 67.6238 200.555 67.3591C199.931 67.0944 199.263 66.9632 198.548 66.9632C197.801 66.9632 197.108 67.1043 196.472 67.3838C195.834 67.6634 195.282 68.0369 194.817 68.5045C194.352 68.9721 193.986 69.5164 193.721 70.1373C193.456 70.7558 193.322 71.4263 193.322 72.1412Z" fill="white"/>
<path d="M222.579 61.2239C224.104 61.2239 225.551 61.5207 226.919 62.1096C228.288 62.7008 229.485 63.5098 230.512 64.5365C231.539 65.5632 232.356 66.7606 232.962 68.1287C233.568 69.4968 233.873 70.9737 233.873 72.5596C233.873 74.1157 233.576 75.5679 232.987 76.9211C232.395 78.2744 231.594 79.4644 230.584 80.4911C229.572 81.5178 228.382 82.3267 227.014 82.918C225.645 83.5093 224.168 83.8037 222.579 83.8037C221.023 83.8037 219.563 83.5241 218.192 82.9626C216.824 82.4034 215.626 81.6167 214.6 80.6073C213.573 79.598 212.764 78.408 212.172 77.0374C211.581 75.6693 211.286 74.1751 211.286 72.5596C211.286 71.0059 211.573 69.5512 212.15 68.198C212.724 66.8447 213.518 65.6622 214.53 64.6528C215.54 63.6434 216.737 62.8344 218.123 62.2258C219.506 61.6197 220.993 61.2857 222.579 61.2239ZM222.579 67.3345C221.864 67.3345 221.196 67.4681 220.573 67.7304C219.949 67.9951 219.397 68.3613 218.917 68.8264C218.435 69.2939 218.054 69.8456 217.774 70.4814C217.495 71.1197 217.354 71.8099 217.354 72.5571C217.354 73.2721 217.495 73.9499 217.774 74.5857C218.054 75.224 218.435 75.7831 218.917 76.2655C219.4 76.748 219.952 77.129 220.573 77.4085C221.194 77.6881 221.864 77.8291 222.579 77.8291C223.295 77.8291 223.97 77.6881 224.608 77.4085C225.244 77.129 225.799 76.748 226.264 76.2655C226.731 75.7831 227.103 75.224 227.385 74.5857C227.664 73.9499 227.805 73.2721 227.805 72.5571C227.743 71.1271 227.229 69.9149 226.266 68.9179C225.301 67.9258 224.071 67.3964 222.579 67.3345Z" fill="white"/>
<path d="M238.957 83.4299C238.119 83.4299 237.418 83.1578 236.857 82.6135C236.297 82.0693 235.986 81.3469 235.924 80.4439V71.8122C235.954 70.3204 236.275 68.9128 236.881 67.5892C237.488 66.2681 238.297 65.1177 239.309 64.138C240.318 63.1583 241.501 62.3815 242.855 61.8051C244.208 61.2311 245.646 60.912 247.17 60.8477C248.041 60.8477 248.763 61.1445 249.34 61.7333C249.914 62.3246 250.233 63.0396 250.298 63.8783C250.298 64.7169 250.001 65.4269 249.412 66.0009C248.82 66.5773 248.09 66.8792 247.219 66.9113C246.504 66.9113 245.834 67.0449 245.213 67.3072C244.589 67.5719 244.047 67.938 243.58 68.4031C243.112 68.8707 242.741 69.4224 242.459 70.0582C242.179 70.6965 242.038 71.3867 242.038 72.1339V80.6245C241.976 81.4335 241.672 82.1014 241.127 82.6309C240.581 83.1652 239.858 83.4299 238.957 83.4299Z" fill="white"/>
<path d="M255.009 53.5718C255.88 53.5718 256.61 53.8761 257.201 54.4822C257.792 55.0883 258.119 55.8429 258.181 56.7434V60.2886H267.14C268.041 60.2886 268.774 60.6003 269.333 61.2213C269.892 61.8447 270.172 62.5745 270.172 63.4132C270.172 64.2222 269.86 64.9446 269.239 65.5828C268.615 66.2211 267.915 66.5403 267.138 66.5403H258.178V71.8593C258.178 72.5742 258.309 73.2521 258.574 73.8879C258.839 74.5262 259.205 75.0927 259.67 75.59C260.138 76.0873 260.69 76.4757 261.328 76.7577C261.964 77.0373 262.657 77.1783 263.404 77.1783C264.213 77.1783 264.904 77.0694 265.48 76.8517C266.054 76.634 266.561 76.3074 266.997 75.872C267.65 75.3129 268.373 75.0259 269.167 75.0086C269.961 74.9938 270.699 75.2981 271.384 75.919C271.696 76.1986 271.928 76.5177 272.084 76.8765C272.24 77.2352 272.324 77.6063 272.342 77.9972C272.356 78.3856 272.302 78.7666 272.178 79.1401C272.055 79.5137 271.852 79.8403 271.572 80.1198C270.483 81.1787 269.286 81.9852 267.979 82.5468C266.673 83.1084 265.272 83.3854 263.78 83.3854C262.162 83.3854 260.638 83.1133 259.208 82.569C257.777 82.0248 256.516 81.2479 255.427 80.2361C254.338 79.2267 253.475 78.012 252.836 76.5969C252.198 75.1818 251.864 73.6034 251.834 71.8617V56.5133C251.834 55.6746 252.153 54.9745 252.792 54.4129C253.427 53.8513 254.167 53.5718 255.009 53.5718Z" fill="white"/>
<path d="M205.615 96.115C205.655 96.115 205.695 96.1233 205.735 96.14C205.775 96.1533 205.813 96.1783 205.85 96.215L206.52 96.92C206.227 97.3033 205.858 97.5933 205.415 97.79C204.975 97.9833 204.453 98.08 203.85 98.08C203.297 98.08 202.8 97.9867 202.36 97.8C201.923 97.61 201.552 97.35 201.245 97.02C200.942 96.6867 200.708 96.2933 200.545 95.84C200.382 95.3833 200.3 94.8883 200.3 94.355C200.3 93.8117 200.388 93.3133 200.565 92.86C200.742 92.4033 200.99 92.01 201.31 91.68C201.63 91.35 202.013 91.0933 202.46 90.91C202.907 90.7267 203.398 90.635 203.935 90.635C204.208 90.635 204.465 90.66 204.705 90.71C204.948 90.7567 205.175 90.8233 205.385 90.91C205.595 90.9933 205.788 91.095 205.965 91.215C206.142 91.335 206.298 91.465 206.435 91.605L205.865 92.37C205.828 92.4167 205.785 92.46 205.735 92.5C205.685 92.5367 205.615 92.555 205.525 92.555C205.465 92.555 205.408 92.5417 205.355 92.515C205.302 92.4883 205.245 92.4567 205.185 92.42C205.125 92.38 205.058 92.3383 204.985 92.295C204.915 92.2483 204.83 92.2067 204.73 92.17C204.633 92.13 204.518 92.0967 204.385 92.07C204.255 92.0433 204.102 92.03 203.925 92.03C203.645 92.03 203.388 92.0817 203.155 92.185C202.925 92.2883 202.725 92.44 202.555 92.64C202.388 92.8367 202.258 93.08 202.165 93.37C202.075 93.6567 202.03 93.985 202.03 94.355C202.03 94.7283 202.08 95.06 202.18 95.35C202.283 95.64 202.422 95.885 202.595 96.085C202.772 96.2817 202.977 96.4317 203.21 96.535C203.443 96.6383 203.693 96.69 203.96 96.69C204.113 96.69 204.253 96.6833 204.38 96.67C204.507 96.6533 204.625 96.6283 204.735 96.595C204.845 96.5583 204.948 96.5117 205.045 96.455C205.142 96.395 205.24 96.32 205.34 96.23C205.38 96.1967 205.423 96.17 205.47 96.15C205.517 96.1267 205.565 96.115 205.615 96.115ZM213.618 90.715V98H211.918V94.92H208.958V98H207.258V90.715H208.958V93.76H211.918V90.715H213.618ZM218.881 95.215L218.206 93.22C218.156 93.0933 218.103 92.945 218.046 92.775C217.99 92.6017 217.933 92.415 217.876 92.215C217.826 92.4183 217.773 92.6067 217.716 92.78C217.66 92.9533 217.606 93.1033 217.556 93.23L216.886 95.215H218.881ZM221.566 98H220.256C220.11 98 219.991 97.9667 219.901 97.9C219.811 97.83 219.743 97.7417 219.696 97.635L219.266 96.365H216.496L216.066 97.635C216.03 97.7283 215.963 97.8133 215.866 97.89C215.773 97.9633 215.656 98 215.516 98H214.196L217.016 90.715H218.746L221.566 98ZM230.331 90.715V98H228.841V93.81C228.841 93.7133 228.842 93.6083 228.846 93.495C228.852 93.3817 228.862 93.2667 228.876 93.15L226.941 96.895C226.881 97.0117 226.799 97.1 226.696 97.16C226.596 97.22 226.481 97.25 226.351 97.25H226.121C225.991 97.25 225.874 97.22 225.771 97.16C225.671 97.1 225.591 97.0117 225.531 96.895L223.596 93.14C223.606 93.26 223.614 93.3783 223.621 93.495C223.627 93.6083 223.631 93.7133 223.631 93.81V98H222.141V90.715H223.431C223.504 90.715 223.567 90.7167 223.621 90.72C223.677 90.7233 223.727 90.7333 223.771 90.75C223.814 90.7667 223.852 90.7933 223.886 90.83C223.922 90.8633 223.957 90.9117 223.991 90.975L225.866 94.67C225.932 94.7967 225.996 94.9283 226.056 95.065C226.119 95.2017 226.179 95.3417 226.236 95.485C226.292 95.3383 226.351 95.195 226.411 95.055C226.474 94.915 226.541 94.7817 226.611 94.655L228.481 90.975C228.514 90.9117 228.547 90.8633 228.581 90.83C228.617 90.7933 228.657 90.7667 228.701 90.75C228.744 90.7333 228.792 90.7233 228.846 90.72C228.902 90.7167 228.967 90.715 229.041 90.715H230.331ZM234.31 94.29C234.75 94.29 235.067 94.185 235.26 93.975C235.453 93.765 235.55 93.4717 235.55 93.095C235.55 92.9283 235.525 92.7767 235.475 92.64C235.425 92.5033 235.348 92.3867 235.245 92.29C235.145 92.19 235.017 92.1133 234.86 92.06C234.707 92.0067 234.523 91.98 234.31 91.98H233.43V94.29H234.31ZM234.31 90.715C234.823 90.715 235.263 90.7767 235.63 90.9C236 91.02 236.303 91.1867 236.54 91.4C236.78 91.6133 236.957 91.865 237.07 92.155C237.183 92.445 237.24 92.7583 237.24 93.095C237.24 93.4583 237.182 93.7917 237.065 94.095C236.948 94.3983 236.77 94.6583 236.53 94.875C236.29 95.0917 235.985 95.2617 235.615 95.385C235.248 95.505 234.813 95.565 234.31 95.565H233.43V98H231.74V90.715H234.31ZM239.798 98H238.098V90.715H239.798V98ZM248.353 94.355C248.353 94.8817 248.261 95.3717 248.078 95.825C247.898 96.2783 247.643 96.6733 247.313 97.01C246.983 97.3433 246.585 97.605 246.118 97.795C245.655 97.985 245.14 98.08 244.573 98.08C244.006 98.08 243.49 97.985 243.023 97.795C242.556 97.605 242.156 97.3433 241.823 97.01C241.493 96.6733 241.236 96.2783 241.053 95.825C240.873 95.3717 240.783 94.8817 240.783 94.355C240.783 93.8283 240.873 93.3383 241.053 92.885C241.236 92.4317 241.493 92.0383 241.823 91.705C242.156 91.3717 242.556 91.11 243.023 90.92C243.49 90.73 244.006 90.635 244.573 90.635C245.14 90.635 245.655 90.7317 246.118 90.925C246.585 91.115 246.983 91.3767 247.313 91.71C247.643 92.0433 247.898 92.4367 248.078 92.89C248.261 93.3433 248.353 93.8317 248.353 94.355ZM246.623 94.355C246.623 93.995 246.576 93.6717 246.483 93.385C246.39 93.095 246.255 92.85 246.078 92.65C245.905 92.45 245.691 92.2967 245.438 92.19C245.185 92.0833 244.896 92.03 244.573 92.03C244.246 92.03 243.955 92.0833 243.698 92.19C243.445 92.2967 243.23 92.45 243.053 92.65C242.88 92.85 242.746 93.095 242.653 93.385C242.56 93.6717 242.513 93.995 242.513 94.355C242.513 94.7183 242.56 95.045 242.653 95.335C242.746 95.6217 242.88 95.865 243.053 96.065C243.23 96.265 243.445 96.4183 243.698 96.525C243.955 96.6283 244.246 96.68 244.573 96.68C244.896 96.68 245.185 96.6283 245.438 96.525C245.691 96.4183 245.905 96.265 246.078 96.065C246.255 95.865 246.39 95.6217 246.483 95.335C246.576 95.045 246.623 94.7183 246.623 94.355ZM255.708 90.715V98H254.828C254.698 98 254.588 97.98 254.498 97.94C254.411 97.8967 254.324 97.8233 254.238 97.72L250.803 93.375C250.816 93.505 250.824 93.6317 250.828 93.755C250.834 93.875 250.838 93.9883 250.838 94.095V98H249.348V90.715H250.238C250.311 90.715 250.373 90.7183 250.423 90.725C250.473 90.7317 250.518 90.745 250.558 90.765C250.598 90.7817 250.636 90.8067 250.673 90.84C250.709 90.8733 250.751 90.9183 250.798 90.975L254.263 95.35C254.246 95.21 254.234 95.075 254.228 94.945C254.221 94.8117 254.218 94.6867 254.218 94.57V90.715H255.708ZM261.146 92.195C261.096 92.275 261.043 92.335 260.986 92.375C260.933 92.415 260.863 92.435 260.776 92.435C260.699 92.435 260.616 92.4117 260.526 92.365C260.439 92.315 260.339 92.26 260.226 92.2C260.116 92.14 259.989 92.0867 259.846 92.04C259.703 91.99 259.539 91.965 259.356 91.965C259.039 91.965 258.803 92.0333 258.646 92.17C258.493 92.3033 258.416 92.485 258.416 92.715C258.416 92.8617 258.463 92.9833 258.556 93.08C258.649 93.1767 258.771 93.26 258.921 93.33C259.074 93.4 259.248 93.465 259.441 93.525C259.638 93.5817 259.838 93.6467 260.041 93.72C260.244 93.79 260.443 93.8733 260.636 93.97C260.833 94.0667 261.006 94.19 261.156 94.34C261.309 94.49 261.433 94.6733 261.526 94.89C261.619 95.1033 261.666 95.3617 261.666 95.665C261.666 96.0017 261.608 96.3167 261.491 96.61C261.374 96.9033 261.204 97.16 260.981 97.38C260.761 97.5967 260.488 97.7683 260.161 97.895C259.838 98.0183 259.469 98.08 259.056 98.08C258.829 98.08 258.598 98.0567 258.361 98.01C258.128 97.9633 257.901 97.8983 257.681 97.815C257.461 97.7283 257.254 97.6267 257.061 97.51C256.868 97.3933 256.699 97.2633 256.556 97.12L257.056 96.33C257.096 96.2733 257.148 96.2267 257.211 96.19C257.278 96.15 257.349 96.13 257.426 96.13C257.526 96.13 257.626 96.1617 257.726 96.225C257.829 96.2883 257.944 96.3583 258.071 96.435C258.201 96.5117 258.349 96.5817 258.516 96.645C258.683 96.7083 258.879 96.74 259.106 96.74C259.413 96.74 259.651 96.6733 259.821 96.54C259.991 96.4033 260.076 96.1883 260.076 95.895C260.076 95.725 260.029 95.5867 259.936 95.48C259.843 95.3733 259.719 95.285 259.566 95.215C259.416 95.145 259.244 95.0833 259.051 95.03C258.858 94.9767 258.659 94.9183 258.456 94.855C258.253 94.7883 258.054 94.7083 257.861 94.615C257.668 94.5183 257.494 94.3933 257.341 94.24C257.191 94.0833 257.069 93.89 256.976 93.66C256.883 93.4267 256.836 93.14 256.836 92.8C256.836 92.5267 256.891 92.26 257.001 92C257.111 91.74 257.273 91.5083 257.486 91.305C257.699 91.1017 257.961 90.94 258.271 90.82C258.581 90.6967 258.936 90.635 259.336 90.635C259.559 90.635 259.776 90.6533 259.986 90.69C260.199 90.7233 260.401 90.775 260.591 90.845C260.781 90.9117 260.958 90.9933 261.121 91.09C261.288 91.1833 261.436 91.29 261.566 91.41L261.146 92.195ZM269.018 90.715V98H267.318V94.92H264.358V98H262.658V90.715H264.358V93.76H267.318V90.715H269.018ZM272.132 98H270.432V90.715H272.132V98ZM276.107 94.29C276.547 94.29 276.864 94.185 277.057 93.975C277.25 93.765 277.347 93.4717 277.347 93.095C277.347 92.9283 277.322 92.7767 277.272 92.64C277.222 92.5033 277.145 92.3867 277.042 92.29C276.942 92.19 276.814 92.1133 276.657 92.06C276.504 92.0067 276.32 91.98 276.107 91.98H275.227V94.29H276.107ZM276.107 90.715C276.62 90.715 277.06 90.7767 277.427 90.9C277.797 91.02 278.1 91.1867 278.337 91.4C278.577 91.6133 278.754 91.865 278.867 92.155C278.98 92.445 279.037 92.7583 279.037 93.095C279.037 93.4583 278.979 93.7917 278.862 94.095C278.745 94.3983 278.567 94.6583 278.327 94.875C278.087 95.0917 277.782 95.2617 277.412 95.385C277.045 95.505 276.61 95.565 276.107 95.565H275.227V98H273.537V90.715H276.107Z" fill="url(#paint17_linear_1_306)"/>
</g>
<defs>
<filter id="filter0_d_1_306" x="7.69702" y="23.3997" width="89.1389" height="89.5564" filterUnits="userSpaceOnUse" color-interpolation-filters="sRGB">
<feFlood flood-opacity="0" result="BackgroundImageFix"/>
<feColorMatrix in="SourceAlpha" type="matrix" values="0 0 0 0 0 0 0 0 0 0 0 0 0 0 0 0 0 0 127 0" result="hardAlpha"/>
<feOffset dx="4" dy="4"/>
<feGaussianBlur stdDeviation="4"/>
<feComposite in2="hardAlpha" operator="out"/>
<feColorMatrix type="matrix" values="0 0 0 0 0 0 0 0 0 0 0 0 0 0 0 0 0 0 0.33 0"/>
<feBlend mode="normal" in2="BackgroundImageFix" result="effect1_dropShadow_1_306"/>
<feBlend mode="normal" in="SourceGraphic" in2="effect1_dropShadow_1_306" result="shape"/>
</filter>
<filter id="filter1_d_1_306" x="42.6846" y="17.3054" width="35.2402" height="36.1943" filterUnits="userSpaceOnUse" color-interpolation-filters="sRGB">
<feFlood flood-opacity="0" result="BackgroundImageFix"/>
<feColorMatrix in="SourceAlpha" type="matrix" values="0 0 0 0 0 0 0 0 0 0 0 0 0 0 0 0 0 0 127 0" result="hardAlpha"/>
<feOffset dx="4" dy="4"/>
<feGaussianBlur stdDeviation="4"/>
<feComposite in2="hardAlpha" operator="out"/>
<feColorMatrix type="matrix" values="0 0 0 0 0 0 0 0 0 0 0 0 0 0 0 0 0 0 0.33 0"/>
<feBlend mode="normal" in2="BackgroundImageFix" result="effect1_dropShadow_1_306"/>
<feBlend mode="normal" in="SourceGraphic" in2="effect1_dropShadow_1_306" result="shape"/>
</filter>
<linearGradient id="paint0_linear_1_306" x1="38.1959" y1="6.94534" x2="84.2513" y2="45.7574" gradientUnits="userSpaceOnUse">
<stop stop-color="#EB008B"/>
<stop offset="1" stop-color="#582E90"/>
</linearGradient>
<linearGradient id="paint1_linear_1_306" x1="42.134" y1="2.27201" x2="88.1876" y2="41.0826" gradientUnits="userSpaceOnUse">
<stop stop-color="#EB008B"/>
<stop offset="1" stop-color="#582E90"/>
</linearGradient>
<linearGradient id="paint2_linear_1_306" x1="4.61815" y1="49.055" x2="9.04386" y2="-9.60894" gradientUnits="userSpaceOnUse">
<stop stop-color="#00ADEE"/>
<stop offset="0.322" stop-color="#0091D1"/>
<stop offset="1" stop-color="#004B89"/>
</linearGradient>
<linearGradient id="paint3_linear_1_306" x1="25.8325" y1="50.6538" x2="30.2577" y2="-8.0029" gradientUnits="userSpaceOnUse">
<stop stop-color="#00ADEE"/>
<stop offset="0.322" stop-color="#0091D1"/>
<stop offset="1" stop-color="#004B89"/>
</linearGradient>
<linearGradient id="paint4_linear_1_306" x1="91.6214" y1="66.7374" x2="83.6893" y2="3.26981" gradientUnits="userSpaceOnUse">
<stop stop-color="#009148"/>
<stop offset="0.262" stop-color="#32A343"/>
<stop offset="0.7702" stop-color="#8EC539"/>
<stop offset="1" stop-color="#B2D235"/>
</linearGradient>
<linearGradient id="paint5_linear_1_306" x1="84.4956" y1="69.2168" x2="76.1259" y2="2.24763" gradientUnits="userSpaceOnUse">
<stop stop-color="#009148"/>
<stop offset="0.262" stop-color="#32A343"/>
<stop offset="0.7702" stop-color="#8EC539"/>
<stop offset="1" stop-color="#B2D235"/>
</linearGradient>
<linearGradient id="paint6_linear_1_306" x1="5.41531" y1="28.2129" x2="54.4229" y2="64.2982" gradientUnits="userSpaceOnUse">
<stop stop-color="#E01B22"/>
<stop offset="1" stop-color="#F6911E"/>
</linearGradient>
<linearGradient id="paint7_linear_1_306" x1="3.30656" y1="31.0779" x2="52.3137" y2="67.1629" gradientUnits="userSpaceOnUse">
<stop stop-color="#E01B22"/>
<stop offset="1" stop-color="#F6911E"/>
</linearGradient>
<linearGradient id="paint8_linear_1_306" x1="83.5762" y1="68.6268" x2="111.573" y2="68.6268" gradientUnits="userSpaceOnUse">
<stop stop-color="#E01B22"/>
<stop offset="1" stop-color="#F6911E"/>
</linearGradient>
<linearGradient id="paint9_linear_1_306" x1="104.387" y1="68.7902" x2="119.738" y2="68.7902" gradientUnits="userSpaceOnUse">
<stop stop-color="#E01B22"/>
<stop offset="1" stop-color="#F6911E"/>
</linearGradient>
<linearGradient id="paint10_linear_1_306" x1="112.271" y1="68.6501" x2="144.234" y2="68.6501" gradientUnits="userSpaceOnUse">
<stop stop-color="#E01B22"/>
<stop offset="1" stop-color="#F6911E"/>
</linearGradient>
<linearGradient id="paint11_linear_1_306" x1="137.6" y1="72.2192" x2="169.571" y2="72.2192" gradientUnits="userSpaceOnUse">
<stop stop-color="#E01B22"/>
<stop offset="1" stop-color="#F6911E"/>
</linearGradient>
<linearGradient id="paint12_linear_1_306" x1="162.712" y1="72.1726" x2="191.315" y2="72.1726" gradientUnits="userSpaceOnUse">
<stop stop-color="#E01B22"/>
<stop offset="1" stop-color="#F6911E"/>
</linearGradient>
<linearGradient id="paint13_linear_1_306" x1="184.362" y1="75.858" x2="216.325" y2="75.858" gradientUnits="userSpaceOnUse">
<stop stop-color="#E01B22"/>
<stop offset="1" stop-color="#F6911E"/>
</linearGradient>
<linearGradient id="paint14_linear_1_306" x1="208.439" y1="72.6387" x2="240.355" y2="72.6387" gradientUnits="userSpaceOnUse">
<stop stop-color="#E01B22"/>
<stop offset="1" stop-color="#F6911E"/>
</linearGradient>
<linearGradient id="paint15_linear_1_306" x1="233.075" y1="72.2657" x2="256.779" y2="72.2657" gradientUnits="userSpaceOnUse">
<stop stop-color="#E01B22"/>
<stop offset="1" stop-color="#F6911E"/>
</linearGradient>
<linearGradient id="paint16_linear_1_306" x1="248.986" y1="68.6035" x2="278.802" y2="68.6035" gradientUnits="userSpaceOnUse">
<stop stop-color="#E01B22"/>
<stop offset="1" stop-color="#F6911E"/>
</linearGradient>
<linearGradient id="paint17_linear_1_306" x1="200" y1="94" x2="281" y2="94" gradientUnits="userSpaceOnUse">
<stop stop-color="#0C9547"/>
<stop offset="1" stop-color="#A9CF36"/>
</linearGradient>
<clipPath id="clip0_1_306">
<rect width="290" height="121" fill="white"/>
</clipPath>
</defs>
</svg>
