<svg width="78" height="50" viewBox="0 0 78 50" fill="none" xmlns="http://www.w3.org/2000/svg">
<g clip-path="url(#clip0_1_241)">
<path d="M11.681 3.11596C10.0708 4.44929 11.2136 5.73139 14.0702 5.73139C17.1347 5.73139 21.0301 12.7057 21.0301 18.0391C21.0301 20.7057 20.6666 20.8596 15.3168 20.8596C-0.00539249 20.8596 -5.45902 33.7827 5.50024 44.1414C21.0821 58.9106 42.7929 39.5774 35.1058 17.7827C31.1584 6.75703 17.5502 -1.75584 11.681 3.11596Z" fill="#F8FDFF"/>
<path d="M74.632 15.1674C70.321 6.19303 56.1415 -1.65329 50.376 1.68005C48.7659 2.60313 49.3892 3.47508 53.3368 5.93662C60.9199 10.7059 63.2573 18.552 57.0764 18.552C39.7286 18.552 35.4694 42.7569 51.9342 47.7826C71.6715 53.7826 84.4486 35.4238 74.632 15.1674Z" fill="#F8FDFF"/>
</g>
<defs>
<clipPath id="clip0_1_241">
<rect width="78" height="50" fill="white"/>
</clipPath>
</defs>
</svg>
