<svg width="76" height="76" viewBox="0 0 76 76" fill="none" xmlns="http://www.w3.org/2000/svg">
<circle cx="38" cy="38" r="38" fill="#0091D1" fill-opacity="0.1"/>
<path d="M52.7226 26.9619C52.588 26.8077 52.4229 26.6831 52.2378 26.5959C52.0526 26.5087 51.8514 26.4607 51.6468 26.4552C48.4691 26.3721 44.4481 22.9743 41.7897 21.6409C40.1475 20.8198 39.0634 20.2784 38.2492 20.1358C38.0839 20.1112 37.9159 20.1116 37.7508 20.1372C36.9366 20.2798 35.8525 20.8212 34.2117 21.6423C31.5532 22.9743 27.5323 26.3721 24.3546 26.4552C24.1499 26.4614 23.9487 26.5096 23.7634 26.5967C23.5781 26.6839 23.4127 26.8082 23.2774 26.9619C22.9973 27.2794 22.8527 27.6939 22.8745 28.1167C23.5571 41.9947 28.5348 50.5835 37.2689 55.575C37.496 55.7038 37.748 55.7702 37.9986 55.7702C38.2492 55.7702 38.5012 55.7038 38.7297 55.575C47.4638 50.5835 52.4401 41.9947 53.1241 28.1167C53.1478 27.6939 53.0034 27.2789 52.7226 26.9619ZM45.7774 32.4201L38.4071 43.2963C38.1426 43.6867 37.7272 43.9456 37.316 43.9456C36.9048 43.9456 36.4451 43.7199 36.1557 43.4306L30.9606 38.2341C30.791 38.0639 30.6958 37.8333 30.6958 37.593C30.6958 37.3527 30.791 37.1222 30.9606 36.9519L32.2441 35.6656C32.4151 35.4974 32.6453 35.403 32.8852 35.403C33.1251 35.403 33.3554 35.4974 33.5263 35.6656L36.9048 39.0441L42.7741 30.3806C42.9099 30.1823 43.1187 30.0458 43.3547 30.001C43.5908 29.9561 43.8351 30.0064 44.0341 30.141L45.5365 31.1601C45.7349 31.2957 45.8717 31.5043 45.9168 31.7404C45.962 31.9765 45.9118 32.2209 45.7774 32.4201Z" fill="#00ADEE"/>
</svg>
