<svg width="20" height="20" viewBox="0 0 20 20" fill="none" xmlns="http://www.w3.org/2000/svg">
<path fill-rule="evenodd" clip-rule="evenodd" d="M10.5001 9.58591L13.7426 12.8284L13.0359 13.5359L9.50008 10.0001V5.00008H10.5001V9.58591ZM10.0001 18.3334C5.39758 18.3334 1.66675 14.6026 1.66675 10.0001C1.66675 5.39758 5.39758 1.66675 10.0001 1.66675C14.6026 1.66675 18.3334 5.39758 18.3334 10.0001C18.3334 14.6026 14.6026 18.3334 10.0001 18.3334ZM10.0001 17.3334C11.945 17.3334 13.8103 16.5608 15.1855 15.1855C16.5608 13.8103 17.3334 11.945 17.3334 10.0001C17.3334 8.05516 16.5608 6.1899 15.1855 4.81463C13.8103 3.43936 11.945 2.66675 10.0001 2.66675C8.05516 2.66675 6.1899 3.43936 4.81463 4.81463C3.43936 6.1899 2.66675 8.05516 2.66675 10.0001C2.66675 11.945 3.43936 13.8103 4.81463 15.1855C6.1899 16.5608 8.05516 17.3334 10.0001 17.3334Z" fill="white"/>
</svg>
