<svg width="19" height="19" viewBox="0 0 19 19" fill="none" xmlns="http://www.w3.org/2000/svg">
<path d="M15.0811 3.88704C14.3552 3.15405 13.4907 2.57285 12.5379 2.17733C11.5851 1.78181 10.5632 1.57988 9.53155 1.58329C5.20905 1.58329 1.68614 5.10621 1.68614 9.42871C1.68614 10.8141 2.0503 12.16 2.73114 13.3475L1.6228 17.4166L5.77905 16.3241C6.92697 16.9495 8.21739 17.282 9.53155 17.282C13.8541 17.282 17.377 13.7591 17.377 9.43663C17.377 7.33871 16.5616 5.36746 15.0811 3.88704ZM9.53155 15.952C8.35989 15.952 7.21197 15.6354 6.20655 15.0416L5.96905 14.8991L3.49905 15.5483L4.15614 13.1416L3.9978 12.8962C3.34669 11.8568 3.00103 10.6552 3.0003 9.42871C3.0003 5.83455 5.92947 2.90538 9.52364 2.90538C11.2653 2.90538 12.9041 3.58621 14.1311 4.82121C14.7388 5.42594 15.2204 6.14531 15.5479 6.9376C15.8754 7.72989 16.0424 8.57932 16.0391 9.43663C16.0549 13.0308 13.1257 15.952 9.53155 15.952ZM13.1099 11.0754C12.912 10.9804 11.9461 10.5054 11.772 10.4341C11.5899 10.3708 11.4632 10.3391 11.3286 10.5291C11.1941 10.727 10.822 11.1704 10.7111 11.297C10.6003 11.4316 10.4816 11.4475 10.2836 11.3445C10.0857 11.2495 9.45239 11.0358 8.70822 10.3708C8.12239 9.8483 7.73447 9.20705 7.61572 9.00913C7.50489 8.81121 7.59989 8.7083 7.7028 8.60538C7.78989 8.5183 7.90072 8.37579 7.99572 8.26496C8.09072 8.15413 8.1303 8.06704 8.19364 7.94038C8.25697 7.80579 8.2253 7.69496 8.1778 7.59996C8.1303 7.50496 7.73447 6.53913 7.57614 6.14329C7.4178 5.76329 7.25155 5.81079 7.1328 5.80288H6.7528C6.61822 5.80288 6.41239 5.85038 6.2303 6.04829C6.05614 6.24621 5.54947 6.72121 5.54947 7.68704C5.54947 8.65288 6.25405 9.58705 6.34905 9.71371C6.44405 9.8483 7.73447 11.8275 9.6978 12.6745C10.1649 12.8804 10.5291 12.9991 10.8141 13.0862C11.2811 13.2366 11.7086 13.2129 12.0491 13.1654C12.4291 13.11 13.2128 12.6904 13.3711 12.2312C13.5374 11.772 13.5374 11.3841 13.482 11.297C13.4266 11.21 13.3078 11.1704 13.1099 11.0754Z" fill="white"/>
</svg>
